General
Complete name                    : Brave[2012]BRrip[Ac3-5.1]-=[CaLvIn]=-
Imdb Link                        : http://www.imdb.com/title/tt1217209/
Format                           : AVI
Format/Info                      : Audio Video Interleave
File size                        : 712 MiB
Duration                         : 1h 33mn
Overall bit rate                 : 1 064 Kbps
Writing application              : VirtualDubMod 1.5.10.3 | www.virtualdub-fr.org || (build 2550/release)
Writing library                  : VirtualDubMod build 2550/release

Video
ID                               : 0
Format                           : MPEG-4 Visual
Format profile                   : Advanced Simple@L5
Format settings, BVOP            : 2
Format settings, QPel            : No
Format settings, GMC             : No warppoints
Format settings, Matrix          : Default (H.263)
Codec ID                         : XVID
Codec ID/Hint                    : XviD
Duration                         : 1h 33mn
Bit rate                         : 798 Kbps
Width                            : 720 pixels
Height                           : 304 pixels
Display aspect ratio             : 16:9
Frame rate                       : 23.976 fps
Color space                      : YUV
Chroma subsampling               : 4:2:0
Bit depth                        : 8 bits
Scan type                        : Progressive
Compression mode                 : Lossy
Bits/(Pixel*Frame)               : 0.152
Stream size                      : 534 MiB (75%)
Writing library                  : XviD 1.2.1 (UTC 2008-12-04)

Audio
ID                               : 1
Format                           : AC-3
Format/Info                      : Audio Coding 3
Mode extension                   : CM (complete main)
Codec ID                         : 2000
Duration                         : 1h 33mn
Bit rate mode                    : Constant
Bit rate                         : 256 Kbps
Channel(s)                       : 6 channels
Channel positions                : Front: L C R, Side: L R, LFE
Sampling rate                    : 48.0 KHz
Bit depth                        : 16 bits
Compression mode                 : Lossy
Stream size                      : 171 MiB (24%)
Alignment                        : Split accross interleaves
Interleave, duration             : 42 ms (1.00 video frame)
Interleave, preload duration     : 500 ms

Screens
 
http://img442.imageshack.us/img442/9171/31538391.png 
http://img829.imageshack.us/img829/4084/62768301.png 
http://img716.imageshack.us/img716/9074/66387099.png 
http://img831.imageshack.us/img831/7565/47126883.png 
http://img689.imageshack.us/img689/9274/82736610.png 
http://img210.imageshack.us/img210/4818/54449896.png 
http://img829.imageshack.us/img829/6484/32696266.png 
http://img821.imageshack.us/img821/9084/74321829.png 
http://img846.imageshack.us/img846/9466/20967291.png 
http://img189.imageshack.us/img189/1930/68001558.png